/* XPM */
static char * bin_xpm[] = {
"16 16 128 2",
"  	c #FBED0C",
". 	c #FCED04",
"+ 	c #FCEE04",
"@ 	c #FCED05",
"# 	c #C55858",
"$ 	c #C45656",
"% 	c #C55959",
"& 	c #C75D5D",
"* 	c #0D0D0D",
"= 	c #FFFFFF",
"- 	c #A3A3A3",
"; 	c #070707",
"> 	c #121212",
", 	c #242424",
"' 	c #FEF302",
") 	c #FDF102",
"! 	c #F7E00C",
"~ 	c #D37E41",
"{ 	c #C45555",
"] 	c #492525",
"^ 	c #5B5B5B",
"/ 	c #0A0A0A",
"( 	c #282828",
"_ 	c #FFF501",
": 	c #F6DE0C",
"< 	c #D88D38",
"[ 	c #4F2B2B",
"} 	c #F6F6F6",
"| 	c #C9C9C9",
"1 	c #1F1F1F",
"2 	c #050505",
"3 	c #F5DC0F",
"4 	c #D07743",
"5 	c #CD6E5B",
"6 	c #DE9C64",
"7 	c #F7F7F7",
"8 	c #F2F2F2",
"9 	c #363636",
"0 	c #C65A5A",
"a 	c #E3AB65",
"b 	c #E4AD66",
"c 	c #DF9E62",
"d 	c #271C1C",
"e 	c #FDFDFD",
"f 	c #999999",
"g 	c #7D7D7D",
"h 	c #E0A065",
"i 	c #E4AC66",
"j 	c #E0A365",
"k 	c #281D1D",
"l 	c #303030",
"m 	c #020202",
"n 	c #CA6759",
"o 	c #E4AB67",
"p 	c #CB675B",
"q 	c #322727",
"r 	c #F8F8F8",
"s 	c #2C2C2C",
"t 	c #5F5F5F",
"u 	c #E2A966",
"v 	c #E2A866",
"w 	c #E4A967",
"x 	c #161616",
"y 	c #F0F0F0",
"z 	c #0E0E0E",
"A 	c #F9F9F9",
"B 	c #E2A666",
"C 	c #E3A966",
"D 	c #D5845E",
"E 	c #E4AA67",
"F 	c #C8615A",
"G 	c #E3A766",
"H 	c #D17A5C",
"I 	c #171717",
"J 	c #111111",
"K 	c #EFEFEF",
"L 	c #D37D5F",
"M 	c #C86357",
"N 	c #C55757",
"O 	c #E3A967",
"P 	c #D27B5D",
"Q 	c #151515",
"R 	c #DFDFDF",
"S 	c #090909",
"T 	c #B5B5B5",
"U 	c #E2E2E2",
"V 	c #141414",
"W 	c #C3585A",
"X 	c #CA9B75",
"Y 	c #CBCBCB",
"Z 	c #030303",
"` 	c #BE575C",
" .	c #5E6DBB",
"..	c #5A71BF",
"+.	c #5D6DBC",
"@.	c #636363",
"#.	c #9E9E9E",
"$.	c #A35D76",
"%.	c #566FC4",
"&.	c #696AB2",
"*.	c #586EC1",
"=.	c #B55964",
"-.	c #1C1C1C",
";.	c #383838",
">.	c #010101",
",.	c #B25E6B",
"'.	c #737CB1",
").	c #576EC2",
"!.	c #9E5F7C",
"~.	c #C65D5D",
"{.	c #0F0F0F",
"].	c #CA6559",
"^.	c #E4A966",
"/.	c #C75F58",
"(.	c #E4AC68",
"_.	c #C25557",
":.	c #C65C5C",
"<.	c #FCFCFC",
"[.	c #040404",
"}.	c #ECECEC",
"|.	c #191919",
"1.	c #F5F5F5",
"2.	c #CB695E",
"3.	c #E4AC67",
"4.	c #C86161",
"5.	c #2E2E2E",
"6.	c #1A1A1A",
"7.	c #FBFBFB",
"  . + @ # $ % & * = = - * ; > , ",
"' ) ! ~ { { $ # ] = = = ^ / > ( ",
"_ : < $ $ $ { # [ } = = = | 1 2 ",
"3 4 5 6 $ # $ # [ 7 = = = = 8 9 ",
"0 { a b c $ $ # d e = f ; g = = ",
"# $ h i j $ $ 0 k 7 = l m 1 = = ",
"# $ n o p { # % q r = s m t = = ",
"0 $ u v w # $ 0 x = = y z A = = ",
"B C D E F G H 0 x = g I m > J K ",
"L M N O $ P G % x 7 Q R S T U V ",
"N $ W X 0 N $ $ x } Y = Z y = = ",
"{ `  ...+.# { # x = = @.m #.= = ",
"# $.%.&.*.=.$ % -.= = ;.>.Q = = ",
"N ,.'.# ).!.{ ~.Q = = s 2 {.r = ",
"$ ].^./.(._.$ :.V <.} [.}.|.1.= ",
":.2.3.# C $ N 4.5.= 1.2 = 6.7.= "};
