/* XPM */
static char * edge_xpm[] = {
"16 16 156 2",
"  	c #FFE826",
". 	c #FFE614",
"+ 	c #FFE719",
"@ 	c #FFF499",
"# 	c #4F5BFF",
"$ 	c #1828FF",
"% 	c #2434FF",
"& 	c #2736FF",
"* 	c #FFFFFF",
"= 	c #030303",
"- 	c #FDFDFD",
"; 	c #FFE60A",
"> 	c #FFE504",
", 	c #FFED5C",
"' 	c #9EA4F7",
") 	c #1A2BFF",
"! 	c #1C2CFF",
"~ 	c #2031FF",
"{ 	c #2F3EFF",
"] 	c #F9F9F9",
"^ 	c #0B0B0B",
"/ 	c #FCFCFC",
"( 	c #FFE60B",
"_ 	c #CCC599",
": 	c #2F3DFE",
"< 	c #1F30FF",
"[ 	c #1424FF",
"} 	c #1122FF",
"| 	c #0E1FFF",
"1 	c #040404",
"2 	c #303FFF",
"3 	c #2D3BFF",
"4 	c #1B2BFF",
"5 	c #091AFF",
"6 	c #0A1BFF",
"7 	c #0416FF",
"8 	c #1A2AFF",
"9 	c #4E4CED",
"0 	c #4A3FE3",
"a 	c #1E23F2",
"b 	c #3930E3",
"c 	c #2229F3",
"d 	c #0B1BFE",
"e 	c #0D1DFF",
"f 	c #2837FF",
"g 	c #989898",
"h 	c #2B2B2B",
"i 	c #353535",
"j 	c #1F1F1F",
"k 	c #3A3A3A",
"l 	c #3D3D3D",
"m 	c #C83E3E",
"n 	c #C51414",
"o 	c #A00707",
"p 	c #C21515",
"q 	c #BC1111",
"r 	c #BD1010",
"s 	c #2232FF",
"t 	c #151515",
"u 	c #F2F2F2",
"v 	c #525252",
"w 	c #EEEEEE",
"x 	c #F5F5F5",
"y 	c #363636",
"z 	c #C23333",
"A 	c #BD0E0E",
"B 	c #AC0808",
"C 	c #B50B0B",
"D 	c #B60C0C",
"E 	c #B30A0A",
"F 	c #2029F8",
"G 	c #2030FF",
"H 	c #FEFEFE",
"I 	c #333333",
"J 	c #262626",
"K 	c #070707",
"L 	c #C74545",
"M 	c #B40A0A",
"N 	c #A30A0A",
"O 	c #A10707",
"P 	c #C01212",
"Q 	c #B50C0C",
"R 	c #2E3DFF",
"S 	c #2D2D2D",
"T 	c #121212",
"U 	c #EFEFEF",
"V 	c #212121",
"W 	c #DB8484",
"X 	c #C21313",
"Y 	c #AD0808",
"Z 	c #C41E1E",
"` 	c #101010",
" .	c #0D0D0D",
"..	c #C0C0C0",
"+.	c #3639EF",
"@.	c #B91010",
"#.	c #C31212",
"$.	c #BE1212",
"%.	c #AD0707",
"&.	c #C65757",
"*.	c #2E3CFF",
"=.	c #1728FF",
"-.	c #080808",
";.	c #050505",
">.	c #0719FF",
",.	c #CC3D3D",
"'.	c #C41212",
").	c #C41515",
"!.	c #BB1D1D",
"~.	c #4B53F7",
"{.	c #0F20FF",
"].	c #1E2EFF",
"^.	c #8B8B8B",
"/.	c #4956FF",
"(.	c #D5927B",
"_.	c #968833",
":.	c #939BFF",
"<.	c #060606",
"[.	c #5562FF",
"}.	c #3D4AFF",
"|.	c #425BDA",
"1.	c #5CC72F",
"2.	c #3746FF",
"3.	c #0517FF",
"4.	c #0F1FFF",
"5.	c #303EFF",
"6.	c #0C0C0C",
"7.	c #1E1E1E",
"8.	c #414141",
"9.	c #72D04C",
"0.	c #60BD55",
"a.	c #4C61EC",
"b.	c #61CB36",
"c.	c #010101",
"d.	c #F3F3F3",
"e.	c #1B1B1B",
"f.	c #59CA2C",
"g.	c #58C92B",
"h.	c #67CE40",
"i.	c #59C92D",
"j.	c #1224FC",
"k.	c #091BFF",
"l.	c #1626FF",
"m.	c #2A39FF",
"n.	c #1A1A1A",
"o.	c #F4F4F4",
"p.	c #0F0F0F",
"q.	c #66CD3D",
"r.	c #68CE3F",
"s.	c #3D4CFC",
"t.	c #5DCB32",
"u.	c #1D2DFE",
"v.	c #2534FF",
"w.	c #0E0E0E",
"x.	c #F7F7F7",
"y.	c #020202",
"  . + @ # $ % & * * * = - * * * ",
"; > , ' ) ! ~ { * * * ] ^ / * * ",
"( _ : < [ } | & * * * * / 1 = ^ ",
"2 3 4 5 6 7 8 4 * * * * * * * * ",
"9 0 a b c d e f * g h i j k l * ",
"m n o p q r 5 s / t u v w x y * ",
"z A B C D E F G H I * J * ] K * ",
"L M N O P Q R 4 - S * ] T U V * ",
"W E X o Y Z R 4 * ` x * 1  ...* ",
"+.@.#.$.%.&.*.=.* l T -.;.j * * ",
">.,.'.).!.~.{.].* * * K ^.* * * ",
"e /.(._.:.7 7 R * * * <.* * * * ",
"[.}.|.1.2.3.4.5.* * * 6./ 7.;.8.",
"9.0.a.b.*.5 {.5.* * * 6.c.d.w e.",
"f.g.h.i.j.k.l.m.* * * n.6.o.x p.",
"q.r.s.t.u.$ 7 v.* * * w.x.= y.e."};
