/* XPM */
static char * fred_xpm[] = {
"16 16 155 2",
"  	c None",
". 	c #000000",
"+ 	c #91C5FF",
"@ 	c #93C7FF",
"# 	c #8FC5FF",
"$ 	c #85BBF7",
"% 	c #94C8FF",
"& 	c #8FC3FC",
"* 	c #93C4FE",
"= 	c #9FCEFF",
"- 	c #A4D1FF",
"; 	c #A0CBFF",
"> 	c #9FC8FC",
", 	c #8DBFFA",
"' 	c #92C6FF",
") 	c #8CC2FE",
"! 	c #86BCF8",
"~ 	c #9FCCFF",
"{ 	c #9FCAFF",
"] 	c #A0C9FD",
"^ 	c #8ABCF9",
"/ 	c #8EC2FE",
"( 	c #8DC3FF",
"_ 	c #90C4FE",
": 	c #93C6FF",
"< 	c #98C5FC",
"[ 	c #88BAF9",
"} 	c #8BBEFD",
"| 	c #8FC2FF",
"1 	c #87BDFB",
"2 	c #93C2F8",
"3 	c #A0CEFF",
"4 	c #88B9FB",
"5 	c #88BBFC",
"6 	c #8BBEFF",
"7 	c #8DC2FF",
"8 	c #8CC3FF",
"9 	c #87BEFE",
"0 	c #8EC4FF",
"a 	c #8EC1F8",
"b 	c #90C2F7",
"c 	c #87BAFC",
"d 	c #86B9FB",
"e 	c #85BAFC",
"f 	c #88BFFF",
"g 	c #8BC2FF",
"h 	c #87BEFF",
"i 	c #90C3FA",
"j 	c #8EC0FF",
"k 	c #88BAFF",
"l 	c #84B6FB",
"m 	c #82B7FB",
"n 	c #85BCFF",
"o 	c #89C0FF",
"p 	c #88C1FF",
"q 	c #86C0FF",
"r 	c #7FB9F9",
"s 	c #84BBFB",
"t 	c #8AC2FD",
"u 	c #90C7FF",
"v 	c #91C6FC",
"w 	c #90C3F8",
"x 	c #93C6FB",
"y 	c #9BCDFF",
"z 	c #90C2FF",
"A 	c #89BBFF",
"B 	c #81B6FA",
"C 	c #80B5F9",
"D 	c #83B9FF",
"E 	c #86BFFF",
"F 	c #87C0FF",
"G 	c #7EB7FA",
"H 	c #7EB8F8",
"I 	c #87BFFC",
"J 	c #90C8FF",
"K 	c #8BBFF8",
"L 	c #8EC3F9",
"M 	c #99CCFF",
"N 	c #94C6FF",
"O 	c #91C3FF",
"P 	c #86BBFF",
"Q 	c #7DB2F6",
"R 	c #7EB4FA",
"S 	c #85BEFF",
"T 	c #81BCFF",
"U 	c #82BDFF",
"V 	c #78B3F5",
"W 	c #79B3F3",
"X 	c #93CBFF",
"Y 	c #90C6FF",
"Z 	c #8BC2FB",
"` 	c #8DC1FA",
" .	c #80B9FE",
"..	c #7FBAFF",
"+.	c #84BFFF",
"@.	c #7CB7FB",
"#.	c #79B4F6",
"$.	c #82BBFE",
"%.	c #8BC5FF",
"&.	c #8FC6FF",
"*.	c #8AC1FF",
"=.	c #88BEFA",
"-.	c #92C5FF",
";.	c #8FC4FF",
">.	c #7DB3F9",
",.	c #7AB3F8",
"'.	c #7BB6FC",
").	c #7BB7FF",
"!.	c #83BFFF",
"~.	c #7EBAFF",
"{.	c #77B3F9",
"].	c #78B3F9",
"^.	c #8BC4FF",
"/.	c #8AC3FF",
"(.	c #84BBFC",
"_.	c #90C3FF",
":.	c #91C7FF",
"<.	c #7DB6F9",
"[.	c #77B2F6",
"}.	c #7EBCFF",
"|.	c #76B2FB",
"1.	c #70ACF5",
"2.	c #81BAFD",
"3.	c #78B3F7",
"4.	c #78B6FF",
"5.	c #72B0FD",
"6.	c #6BA9F6",
"7.	c #73AEFC",
"8.	c #85BDFF",
"9.	c #8AC1FA",
"0.	c #8BC1FD",
"a.	c #89C4FF",
"b.	c #85BFFF",
"c.	c #7BB8FB",
"d.	c #73B2FF",
"e.	c #73B0FF",
"f.	c #6EABFB",
"g.	c #70AAFC",
"h.	c #78B3FF",
"i.	c #8BC2FA",
"j.	c #88C3FF",
"k.	c #89C3FF",
"l.	c #7FBCFD",
"m.	c #76B2FA",
"n.	c #72B1FE",
"o.	c #75B4FF",
"p.	c #6EABFE",
"q.	c #6CA9FC",
"r.	c #83BCFF",
"s.	c #86BDF6",
"t.	c #8AC2FF",
"u.	c #82BFFF",
"v.	c #73B2F9",
"w.	c #63A1F6",
"x.	c #80BAFF",
". . + @ # . . $ % & * = - ; > . ",
". , . ' . ) . ! . . . . ~ { ] . ",
". ^ / . # ( . ! . _ : . < . . . ",
". [ } | # ( . 1 . . . . 2 . 3 . ",
". 4 5 6 7 8 . 9 . 0 @ a b . 3 . ",
". c d e f g . h . . . . i . . . ",
"j k l m n o p q r s t u v w x y ",
"z A B C D E F E G H I J u K L M ",
"N O P Q R S F T U V W o X Y Z ` ",
". . . . .  .T ..+.@.#.$.%.&.*.=.",
". -.;.n >.,.'.).!.~.{.].T ^./.(.",
". _.:.o <.[.{.. }.. |.1.. . . . ",
". . . . 2.3.{.. 4.. 5.6.7.T . 8.",
". 9.0.a.b.c.{.. d.. e.f.g.h.. S ",
". i.=.j.k.l.m.. n.. o.d.p.q.. r.",
". & s.t.%.u.v.. d.. . . . w.. x."};
