/* XPM */
static char * highpass_xpm[] = {
"16 16 176 2",
"  	c #3086C3",
". 	c #2681C0",
"+ 	c #1F7CBF",
"@ 	c #247FC0",
"# 	c #2F86C3",
"$ 	c #3D8EC7",
"% 	c #4492C9",
"& 	c #4C97CB",
"* 	c #80B5DA",
"= 	c #1E7CBE",
"- 	c #1C7BBE",
"; 	c #227EBF",
"> 	c #2E85C3",
", 	c #2B83C1",
"' 	c #2A82C1",
") 	c #3488C3",
"! 	c #3A8CC6",
"~ 	c #4090C7",
"{ 	c #3D8DC7",
"] 	c #3C8EC7",
"^ 	c #3288C4",
"/ 	c #1F7DBF",
"( 	c #378AC5",
"_ 	c #237FBF",
": 	c #237EBF",
"< 	c #3087C3",
"[ 	c #4995CA",
"} 	c #4593CA",
"| 	c #3589C4",
"1 	c #227FBF",
"2 	c #388BC5",
"3 	c #2580C0",
"4 	c #217DBF",
"5 	c #368AC4",
"6 	c #4994CA",
"7 	c #337DB3",
"8 	c #3374A1",
"9 	c #317CB2",
"0 	c #4F8EBB",
"a 	c #5D96BE",
"b 	c #4F98CC",
"c 	c #2781C0",
"d 	c #4C96CB",
"e 	c #3A8DC7",
"f 	c #267FBF",
"g 	c #3475B1",
"h 	c #050608",
"i 	c #000000",
"j 	c #398BC5",
"k 	c #1F7CBE",
"l 	c #2F85C3",
"m 	c #2881C1",
"n 	c #3676B2",
"o 	c #25496F",
"p 	c #050504",
"q 	c #8D7C2E",
"r 	c #B6A632",
"s 	c #BEB34D",
"t 	c #BDB045",
"u 	c #BBAD3C",
"v 	c #BAAC3C",
"w 	c #D0C249",
"x 	c #DCD177",
"y 	c #2C84C2",
"z 	c #358AC5",
"A 	c #3B83BE",
"B 	c #3870A8",
"C 	c #080A09",
"D 	c #876F2B",
"E 	c #A3A133",
"F 	c #4A6E31",
"G 	c #567734",
"H 	c #466B31",
"I 	c #4A6D31",
"J 	c #507335",
"K 	c #446A31",
"L 	c #DBD073",
"M 	c #3488C4",
"N 	c #3083C0",
"O 	c #3874AF",
"P 	c #25486A",
"Q 	c #0D0B04",
"R 	c #C0A845",
"S 	c #7F9C32",
"T 	c #5A8733",
"U 	c #456F2F",
"V 	c #416D2F",
"W 	c #4C372C",
"X 	c #73792E",
"Y 	c #D2C450",
"Z 	c #3288C3",
"` 	c #346FA7",
" .	c #010101",
"..	c #8D7C35",
"+.	c #CBBA3F",
"@.	c #4A342D",
"#.	c #435D31",
"$.	c #446D2F",
"%.	c #495E2F",
"&.	c #4A7F2D",
"*.	c #B2B957",
"=.	c #D0C24C",
"-.	c #3D78A2",
";.	c #2973A8",
">.	c #3A7DAC",
",.	c #3F79AD",
"'.	c #162D45",
").	c #0E0D05",
"!.	c #BCA436",
"~.	c #CABA32",
"{.	c #446B31",
"].	c #583F2E",
"^.	c #455630",
"/.	c #476F2F",
"(.	c #523F2D",
"_.	c #436A31",
":.	c #729835",
"<.	c #DDD37B",
"[.	c #020201",
"}.	c #BEA735",
"|.	c #D2C44F",
"1.	c #D3C554",
"2.	c #CAB931",
"3.	c #416830",
"4.	c #CBBB37",
"5.	c #B0B64E",
"6.	c #4D7031",
"7.	c #9D9F36",
"8.	c #E4DC96",
"9.	c #DFD480",
"0.	c #D3C655",
"a.	c #CCBC39",
"b.	c #BCAE3F",
"c.	c #CCBC36",
"d.	c #C9B82D",
"e.	c #C9B92D",
"f.	c #CAB92E",
"g.	c #CBBA30",
"h.	c #929E35",
"i.	c #446A32",
"j.	c #C6BE58",
"k.	c #AAAE37",
"l.	c #AAAE34",
"m.	c #CDBE3D",
"n.	c #E2DA92",
"o.	c #CBBA33",
"p.	c #CAB930",
"q.	c #CABA31",
"r.	c #CAB92F",
"s.	c #CBBB35",
"t.	c #D5C85A",
"u.	c #436932",
"v.	c #426831",
"w.	c #CFC043",
"x.	c #D0C146",
"y.	c #D1C34C",
"z.	c #D5C85C",
"A.	c #CBBB34",
"B.	c #C9B92E",
"C.	c #B6AD2E",
"D.	c #406730",
"E.	c #6F842F",
"F.	c #CBBA32",
"G.	c #CFC044",
"H.	c #CBBB33",
"I.	c #CEBE3E",
"J.	c #557432",
"K.	c #416831",
"L.	c #CCBC37",
"M.	c #D9CD6C",
"N.	c #CFC045",
"O.	c #CEBF41",
"P.	c #CCBB36",
"Q.	c #CCBC38",
"R.	c #ACA837",
"S.	c #AAA731",
"  . + . . @ # $ $ % % % % % & * ",
"= - ; > , ' ) ! ! ! ! ~ ~ ~ { ] ",
"^ / ( @ _   : < ! [ } | ~ ~ ! ! ",
"] 1 ! 2 3 ; 4 5 6 7 8 9 0 0 a a ",
"b ; c d e f g h i i i i i i i i ",
"j k 2 l m n o p q r s t u v w x ",
"y c   z A B C D E F G H I J K L ",
"  m M N O P Q R S T U V W X H Y ",
"Z ! # n `  ...+.H @.#.$.%.&.*.=.",
"-.;.>.,.'.).!.~.{.].^./.(._.:.<.",
"i i i  .[.}.}.|.1.2.3.4.5.6.7.8.",
"9.0.a.b.c.d.e.f.g.h.i.j.k.l.m.n.",
"Y o.p.p.q.p.r.s.t.u.v.w.x.y.w.z.",
"A.~.r.r.r.r.p.B.C.D.E.p.q.~.F.G.",
"x.~.H.H.H.H.a.I.J.K.m.m.s.L.L.m.",
"L M.N.O.P.p.o.Q.R.S.~.~.m.w w w "};
