/* XPM */
static char * hp_xpm[] = {
"16 15 32 1",
" 	c None",
".	c #789EDC",
"+	c #4076D0",
"@	c #9AB6E4",
"#	c #81A4DE",
"$	c #89AAE0",
"%	c #8FAEE1",
"&	c #92B0E2",
"*	c #95B2E2",
"=	c #86A7DF",
"-	c #8CACE1",
";	c #91AFE2",
">	c #4E80D3",
",	c #ACE95B",
"'	c #7DA1DD",
")	c #8AABE0",
"!	c #93B1E2",
"~	c #95B3E3",
"{	c #97B3E3",
"]	c #97B4E3",
"^	c #99B5E4",
"/	c #96B2E3",
"(	c #94B2E2",
"_	c #90AFE2",
":	c #98B5E3",
"<	c #8BABE0",
"[	c #88A8E0",
"}	c #80A3DE",
"|	c #769CDC",
"1	c #6691D8",
"2	c #7098DB",
"3	c #7BA0DC",
".+@@+@+++#+#$%&*",
"@+@@+@+@+@+@@@@@",
"@++++@+++@+@@@@@",
"=+@@+@+@@@+@@@@@",
"-+@@+@+@@@+@@@@@",
";@@@@@@@@@+@@@@@",
">+++++++++,,,,,,",
"'@+@@@+@@,,@@@@@",
")@@@@@@@,,+@@@@@",
"%@@@@@@,,@+@@@@@",
"!@@@@@,,@@++@@@@",
"~@@@@,,@@@+@@@@@",
"{@@@,,@@@@++@@@@",
"]@@,,@^/(_+@@@@@",
":@,,@&<[}|++123<"};
