/* XPM */
static char * lowpass_xpm[] = {
"16 16 175 2",
"  	c #214883",
". 	c #1C4480",
"+ 	c #1D4581",
"@ 	c #28586F",
"# 	c #3C8341",
"$ 	c #1F4681",
"% 	c #204782",
"& 	c #234A84",
"* 	c #254B85",
"= 	c #234984",
"- 	c #224983",
"; 	c #1F4782",
"> 	c #2D655E",
", 	c #326E57",
"' 	c #245077",
") 	c #1E4681",
"! 	c #204882",
"~ 	c #865D42",
"{ 	c #0B0602",
"] 	c #BF6C23",
"^ 	c #A67046",
"/ 	c #4C5167",
"( 	c #A16331",
"_ 	c #3C843F",
": 	c #1C457F",
"< 	c #1D4480",
"[ 	c #304C79",
"} 	c #E1B58F",
"| 	c #C16A1F",
"1 	c #CC8445",
"2 	c #D39967",
"3 	c #B06728",
"4 	c #BA6922",
"5 	c #357256",
"6 	c #2C5F6C",
"7 	c #1E4581",
"8 	c #484F68",
"9 	c #AF6629",
"0 	c #D3A47E",
"a 	c #93613A",
"b 	c #364B75",
"c 	c #030303",
"d 	c #020202",
"e 	c #050704",
"f 	c #050604",
"g 	c #040404",
"h 	c #010101",
"i 	c #1B3C6B",
"j 	c #1F4682",
"k 	c #3C8340",
"l 	c #214C79",
"m 	c #162740",
"n 	c #0B192E",
"o 	c #18345E",
"p 	c #183157",
"q 	c #204275",
"r 	c #152E26",
"s 	c #040706",
"t 	c #1E4277",
"u 	c #2E665E",
"v 	c #36764E",
"w 	c #1D4680",
"x 	c #798AA4",
"y 	c #8B98AA",
"z 	c #1E4682",
"A 	c #214882",
"B 	c #245272",
"C 	c #295E67",
"D 	c #020407",
"E 	c #214884",
"F 	c #285971",
"G 	c #2D5E6F",
"H 	c #20497D",
"I 	c #214983",
"J 	c #97A2AF",
"K 	c #ABAFB6",
"L 	c #34578C",
"M 	c #204883",
"N 	c #214A7E",
"O 	c #2D665E",
"P 	c #16325C",
"Q 	c #020303",
"R 	c #162E52",
"S 	c #316D57",
"T 	c #3C8241",
"U 	c #214A7D",
"V 	c #9BA4B1",
"W 	c #A8ADB6",
"X 	c #798DAE",
"Y 	c #264D85",
"Z 	c #397D48",
"` 	c #1E456B",
" .	c #030509",
"..	c #10221C",
"+.	c #0D1E21",
"@.	c #1A355D",
"#.	c #16335B",
"$.	c #264A81",
"%.	c #25477B",
"&.	c #A1AAB6",
"*.	c #A4ADB8",
"=.	c #8D9FBA",
"-.	c #889CB8",
";.	c #8295B5",
">.	c #6D85AA",
",.	c #5F8788",
"'.	c #204783",
").	c #15315B",
"!.	c #010301",
"~.	c #040603",
"{.	c #9AA7BA",
"].	c #A2AAB7",
"^.	c #93A3BA",
"/.	c #090A0B",
"(.	c #9EA9BB",
"_.	c #A8AEB6",
":.	c #95A5BE",
"<.	c #7C90B1",
"[.	c #1D4580",
"}.	c #204C78",
"|.	c #3C8240",
"1.	c #306B58",
"2.	c #1E4580",
"3.	c #264C84",
"4.	c #9EA9BA",
"5.	c #A6ADB7",
"6.	c #9CA9BA",
"7.	c #99A6BB",
"8.	c #A3ACB8",
"9.	c #B3BDCF",
"0.	c #AAB8CB",
"a.	c #879AB7",
"b.	c #25556F",
"c.	c #34764D",
"d.	c #204B79",
"e.	c #224984",
"f.	c #A2ABB8",
"g.	c #A3ABB9",
"h.	c #A7AEB7",
"i.	c #9CA4B1",
"j.	c #AEB5C0",
"k.	c #C1C5CB",
"l.	c #B1B4BC",
"m.	c #5E7594",
"n.	c #1E4780",
"o.	c #3F893A",
"p.	c #2A6063",
"q.	c #9DA7B3",
"r.	c #959DAC",
"s.	c #9096A0",
"t.	c #8F97A2",
"u.	c #8C929D",
"v.	c #8C929B",
"w.	c #7D8898",
"x.	c #50688E",
"y.	c #264C85",
"z.	c #2A5B6C",
"A.	c #337153",
"B.	c #306D56",
"C.	c #8C939E",
"D.	c #8D959F",
"E.	c #6D8099",
"F.	c #526B92",
"G.	c #4C648C",
"H.	c #294D83",
"I.	c #346C60",
"J.	c #387A4C",
"K.	c #2E6169",
"L.	c #586D90",
"M.	c #435F8A",
"N.	c #2D5085",
"O.	c #428D38",
"P.	c #325F7A",
"Q.	c #294F88",
"R.	c #2C5189",
"  . + @ # $ %   & & & & * * = - ",
"; . > , ' $ ) % ! ~ { ] ^ / ( ) ",
"! + _ : + < < [ [ } | 1 2 3 4 . ",
"& % 5 6 & ! 7 [ [ 8 9 0 a b 3 ! ",
"c d e f g h h i . ) j + j k l 7 ",
"m n o p q r s d t + %   u v w = ",
"x y ! z A B C D c ) E F G H j I ",
"J K L + M N O P Q R S T U < ) j ",
"V W X + + Y Z `  .h ..+.@.#.$.%.",
"&.*.=.-.;.>.,.'.).g !.~.g h g d ",
"{.].^./.(._.:.<.. [.}.|.1.. 2.3.",
"4.5.6.7.8.9.0.a.. . [.b.c.d.  e.",
"f.g.h.i.j.k.l.m.7 7 7 n.o.p.$ . ",
"q.r.s.t.u.v.w.x.y.y.z.A.B.. + [.",
"C.D.E.F.G.H.) j = I.J.K.  % & + ",
"L.M.N.; ) 7 + 7 ; O.P.Q.Q.Q.Q.R."};
