/* XPM */
static char * lp_xpm[] = {
"16 15 38 1",
" 	c None",
".	c #95B2E2",
"+	c #92B0E2",
"@	c #8FAEE1",
"#	c #89AAE0",
"$	c #81A4DE",
"%	c #4076D0",
"&	c #487BD1",
"*	c #90AFE1",
"=	c #87A9DF",
"-	c #86A8DF",
";	c #4F81D3",
">	c #4B7ED2",
",	c #789EDC",
"'	c #9AB6E4",
")	c #86A7DF",
"!	c #8CACE1",
"~	c #91AFE2",
"{	c #ACE95B",
"]	c #4E80D3",
"^	c #7DA1DD",
"/	c #8AABE0",
"(	c #93B1E2",
"_	c #95B3E3",
":	c #97B3E3",
"<	c #90AFE2",
"[	c #94B2E2",
"}	c #96B2E3",
"|	c #99B5E4",
"1	c #97B4E3",
"2	c #8BABE0",
"3	c #7BA0DC",
"4	c #7098DB",
"5	c #6691D8",
"6	c #769CDC",
"7	c #80A3DE",
"8	c #88A8E0",
"9	c #98B5E3",
".+@#$%$&*=-$;>&,",
"'''''%'%''''%'%%",
"'''''%'%''''%'%%",
"'''''%'%''''%%%)",
"'''''%'%%%%'%''!",
"'''''%'''''''''~",
"{{{{{{%%%%%%%%%]",
"'''''{{''%'''%'^",
"'''''%{{'''''''/",
"'''''%'{{''''''@",
"''''%%''{{'''''(",
"'''''%'''{{''''_",
"''''%%''''{{''':",
"'''''%<[}|'{{''1",
"2345%%6782+'{{'9"};
