/* XPM */
static char * max_xpm[] = {
"16 16 221 2",
"  	c #E70A0A",
". 	c #FA130A",
"+ 	c #0F0201",
"@ 	c #0F0401",
"# 	c #A93A07",
"$ 	c #200D01",
"% 	c #0F0501",
"& 	c #FF7D01",
"* 	c #FF7D00",
"= 	c #1F1301",
"- 	c #FF8602",
"; 	c #FF9805",
"> 	c #1F1401",
", 	c #FFC50D",
"' 	c #0F0D01",
") 	c #FFD305",
"! 	c #FE0202",
"~ 	c #FF0F05",
"{ 	c #200402",
"] 	c #FF360E",
"^ 	c #0F0601",
"/ 	c #FF6E01",
"( 	c #0B0501",
"_ 	c #FF7202",
": 	c #1F0F01",
"< 	c #BF6101",
"[ 	c #FF9901",
"} 	c #CF7805",
"| 	c #2D2201",
"1 	c #FF4D4D",
"2 	c #FF3F3F",
"3 	c #0B0101",
"4 	c #FF3904",
"5 	c #FF5D02",
"6 	c #FF6D01",
"7 	c #200E01",
"8 	c #FF821A",
"9 	c #1F0F02",
"0 	c #BF6104",
"a 	c #1F1001",
"b 	c #FFA62F",
"c 	c #0F0A02",
"d 	c #FFC506",
"e 	c #FFD307",
"f 	c #FFFAFA",
"g 	c #FFFCFC",
"h 	c #FFF1EF",
"i 	c #FFF9F7",
"j 	c #FFFBF8",
"k 	c #FFFCFA",
"l 	c #CCBEB4",
"m 	c #A7A6A4",
"n 	c #8C837D",
"o 	c #ADAAA8",
"p 	c #7C7167",
"q 	c #FFFEFD",
"r 	c #FFFCF7",
"s 	c #FFFEF8",
"t 	c #FFFEFB",
"u 	c #FFFDF6",
"v 	c #FF1212",
"w 	c #FF1E1A",
"x 	c #FF241B",
"y 	c #FF522A",
"z 	c #FF7B39",
"A 	c #9F5426",
"B 	c #221D1A",
"C 	c #954C1A",
"D 	c #CB4C01",
"E 	c #692F02",
"F 	c #0B0700",
"G 	c #E3931B",
"H 	c #FFA81E",
"I 	c #FFBD12",
"J 	c #FFDA2A",
"K 	c #FFD615",
"L 	c #FF0D0D",
"M 	c #FF1000",
"N 	c #FF2305",
"O 	c #FF450E",
"P 	c #FF5601",
"Q 	c #1C0B00",
"R 	c #8D3B02",
"S 	c #FF6101",
"T 	c #FF7600",
"U 	c #FF7506",
"V 	c #764001",
"W 	c #371F01",
"X 	c #FF9A03",
"Y 	c #FFB00B",
"Z 	c #FFD303",
"` 	c #FF110D",
" .	c #FF1A00",
"..	c #FF2C05",
"+.	c #FF470B",
"@.	c #D43E01",
"#.	c #0E0601",
"$.	c #FF7801",
"%.	c #FF7604",
"&.	c #C75E01",
"*.	c #211401",
"=.	c #FFA004",
"-.	c #FFC10C",
";.	c #FFD304",
">.	c #FF1E0F",
",.	c #FF1600",
"'.	c #FF2C04",
").	c #FF440A",
"!.	c #521C01",
"~.	c #FF7601",
"{.	c #FF6F01",
"].	c #FF6901",
"^.	c #FF8701",
"/.	c #190E00",
"(.	c #815A04",
"_.	c #FFC512",
":.	c #FF1111",
"<.	c #FF0A00",
"[.	c #FF2806",
"}.	c #FF3B0A",
"|.	c #210A01",
"1.	c #672C02",
"2.	c #FF6B02",
"3.	c #FF6801",
"4.	c #FF7E04",
"5.	c #FF8901",
"6.	c #452802",
"7.	c #452C02",
"8.	c #FFC110",
"9.	c #FF0000",
"0.	c #FF2006",
"a.	c #CB3106",
"b.	c #090301",
"c.	c #D15E02",
"d.	c #FF7201",
"e.	c #FF7101",
"f.	c #FF7904",
"g.	c #FF9301",
"h.	c #B06D04",
"i.	c #2F1F02",
"j.	c #F3BE1A",
"k.	c #FFD201",
"l.	c #FFD409",
"m.	c #FF0A0A",
"n.	c #FF0400",
"o.	c #FF2105",
"p.	c #380E02",
"q.	c #FF7B02",
"r.	c #FF6C01",
"s.	c #FF7B01",
"t.	c #FF7403",
"u.	c #FF8201",
"v.	c #FF8F03",
"w.	c #050400",
"x.	c #5D4704",
"y.	c #FFD40D",
"z.	c #FF0606",
"A.	c #FF0800",
"B.	c #6C0B02",
"C.	c #070201",
"D.	c #C03E01",
"E.	c #FF6602",
"F.	c #FF6D02",
"G.	c #FF6A01",
"H.	c #FF7301",
"I.	c #FF7603",
"J.	c #FF8401",
"K.	c #FF9303",
"L.	c #302101",
"M.	c #130E01",
"N.	c #9E8101",
"O.	c #B29405",
"P.	c #0F0101",
"Q.	c #090100",
"R.	c #040101",
"S.	c #320B02",
"T.	c #FF5D01",
"U.	c #FF6803",
"V.	c #FF8001",
"W.	c #FF7C02",
"X.	c #FF8A01",
"Y.	c #FF9903",
"Z.	c #FCAA02",
"`.	c #1B1501",
" +	c #251F01",
".+	c #292202",
"++	c #BA0606",
"@+	c #BF0000",
"#+	c #E60E05",
"$+	c #FF3006",
"%+	c #FF5101",
"&+	c #FF7402",
"*+	c #FF6A02",
"=+	c #FF6701",
"-+	c #FF7E01",
";+	c #FF8C01",
">+	c #FF9802",
",+	c #FFA502",
"'+	c #FFD200",
")+	c #FFD40A",
"!+	c #FF0202",
"~+	c #FF1205",
"{+	c #FF3A08",
"]+	c #FF5001",
"^+	c #FF6C02",
"/+	c #FF8801",
"(+	c #FF8501",
"_+	c #FFA504",
":+	c #FFB005",
"<+	c #FFCB0E",
"[+	c #FFD308",
"}+	c #FF0E0E",
"|+	c #FF1F12",
"1+	c #FF4409",
"2+	c #FF7702",
"3+	c #FF8402",
"4+	c #FF8D01",
"5+	c #FF9A04",
"6+	c #FF9D09",
"7+	c #FFB30E",
"8+	c #FFD301",
"  . + @ # $ % & * = - ; > , ' ) ",
"! ~ { ] ^ / ( _ : < : [ } | ) ) ",
"1 2 3 4 5 6 7 8 9 0 a b c d ' e ",
"f g h i j k l m n o p q r s t u ",
"v w x y z A B C D E F G H I J K ",
"L M N O P Q R S T U V W X Y ) Z ",
"`  ...+.@.#.$.6 / %.&.*.=.-.;.) ",
">.,.'.).!.$ ~.{.].%.^./.(._.) ) ",
":.<.[.}.|.1.2.~.3.4.5.6.7.8.;.) ",
":.9.0.a.b.c.d.~.e.f.g.h.i.j.k.l.",
"m.n.o.p.Q q.r.s.{.t.u.v.w.x.k.y.",
"z.A.B.C.D.E.F.G.H.I.J.K.L.M.N.O.",
"P.Q.R.S.T.U./ r.V.W.X.Y.Z.`. +.+",
"++@+#+$+%+&+*+=+-+$.;+>+,+8.'+)+",
"L !+~+{+]+q.^+H./+(+X._+:+<+'+[+",
":.}+|+1+E.&+2+d.& 3+4+5+6+7+8+[+"};
