/* XPM */
static char * median_xpm[] = {
"16 16 154 2",
"  	c #3E5195",
". 	c #3D4F94",
"+ 	c #32458E",
"@ 	c #4E5E9D",
"# 	c #0D0D0D",
"$ 	c #425597",
"% 	c #384B91",
"& 	c #394C92",
"* 	c #31458F",
"= 	c #3C4D93",
"- 	c #090909",
"; 	c #475899",
"> 	c #405396",
", 	c #445698",
"' 	c #425497",
") 	c #35488E",
"! 	c #334790",
"~ 	c #344791",
"{ 	c #0E0E0E",
"] 	c #040404",
"^ 	c #425496",
"/ 	c #374B91",
"( 	c #354891",
"_ 	c #364A90",
": 	c #5465A0",
"< 	c #050505",
"[ 	c #080808",
"} 	c #3C4E94",
"| 	c #334690",
"1 	c #3E5094",
"2 	c #3F5195",
"3 	c #34478F",
"4 	c #394A8C",
"5 	c #020202",
"6 	c #EAEAEA",
"7 	c #E2E2E2",
"8 	c #070707",
"9 	c #FDFDFD",
"0 	c #FEFEFE",
"a 	c #0A0A0A",
"b 	c #415396",
"c 	c #32468F",
"d 	c #3A4D93",
"e 	c #31448D",
"f 	c #364990",
"g 	c #2A2A2A",
"h 	c #010101",
"i 	c #F9F9F9",
"j 	c #FCFCFC",
"k 	c #1A1A1A",
"l 	c #34488F",
"m 	c #364991",
"n 	c #32458D",
"o 	c #3C4F94",
"p 	c #131313",
"q 	c #F5F5F5",
"r 	c #121212",
"s 	c #060606",
"t 	c #455799",
"u 	c #33468F",
"v 	c #3D5094",
"w 	c #111111",
"x 	c #221D13",
"y 	c #16130C",
"z 	c #0A0806",
"A 	c #030303",
"B 	c #1A1610",
"C 	c #000000",
"D 	c #17191E",
"E 	c #384C91",
"F 	c #30448D",
"G 	c #405296",
"H 	c #231D14",
"I 	c #C6A570",
"J 	c #342D21",
"K 	c #B59867",
"L 	c #060A14",
"M 	c #2F438C",
"N 	c #30438D",
"O 	c #405295",
"P 	c #0F0F0F",
"Q 	c #1B1B1B",
"R 	c #272727",
"S 	c #181818",
"T 	c #0A0C16",
"U 	c #33468E",
"V 	c #282828",
"W 	c #1C1C1C",
"X 	c #0B0F1D",
"Y 	c #32468E",
"Z 	c #384B92",
"` 	c #222222",
" .	c #5E5038",
"..	c #322D24",
"+.	c #2B2B2B",
"@.	c #1F1F1F",
"#.	c #040407",
"$.	c #31448E",
"%.	c #374A91",
"&.	c #191919",
"*.	c #272219",
"=.	c #B29767",
"-.	c #DDBA7E",
";.	c #EEC886",
">.	c #F3CB88",
",.	c #CDAC74",
"'.	c #736143",
").	c #0D0F14",
"!.	c #3C4E93",
"~.	c #212121",
"{.	c #252321",
"].	c #CEAD75",
"^.	c #EAC483",
"/.	c #EBBF96",
"(.	c #E4B897",
"_.	c #EFC490",
":.	c #FAD18B",
"<.	c #C8A872",
"[.	c #373737",
"}.	c #1A1C23",
"|.	c #2F438D",
"1.	c #0B0B0B",
"2.	c #1D1B18",
"3.	c #DDBA7F",
"4.	c #EDBF9E",
"5.	c #E6B4AE",
"6.	c #E2AEB6",
"7.	c #E4BF80",
"8.	c #897350",
"9.	c #333333",
"0.	c #181A22",
"a.	c #33478F",
"b.	c #2E428C",
"c.	c #354890",
"d.	c #161616",
"e.	c #B89B67",
"f.	c #ECC685",
"g.	c #F9D08A",
"h.	c #EEC885",
"i.	c #E2BE80",
"j.	c #897656",
"k.	c #5C6693",
"l.	c #343434",
"m.	c #524837",
"n.	c #BC9F6D",
"o.	c #B0966A",
"p.	c #978564",
"q.	c #C7A977",
"r.	c #443A28",
"s.	c #0F1119",
"t.	c #141414",
"u.	c #171717",
"v.	c #383838",
"w.	c #47599A",
"  . + @ # $ % & * = - ; > , @ ' ",
") ! ~ { ] ^ / ( _ : < [ } | 1 2 ",
"+ 3 4 5 5 6 7 8 9 0 a < b c + d ",
"e f g ] h 6 < i [ j [ < k > l m ",
"n o [ 5 p q < r r q < s { t + u ",
"e v w ] x y z 8 A B C h D E e F ",
"F G 5 5 H I J r [ K 5 C L o M M ",
"N O ] < 5 P - Q 8 R S 8 T & M N ",
"U ^ r r s s { 5 P V W - X / Y M ",
"Z 1 P ` P A {  ...V +.@.#.1 N N ",
"$.%.&.W *.=.-.;.>.,.'.W )._ F M ",
"F !.~.{.].^./.(._.:.<.[.}.3 |.M ",
"|.%.1.2.3.4.5.6.6.7.8.9.0.a.M M ",
"b.c.# d.e.f.g.:.h.i.j.p p a.M M ",
"N 3 k.a l.m.n.o.p.q.r.w s.f |.N ",
"O $.> t.] 8 ] a t.` u.S v.w.' u "};
