/* XPM */
static char * min_xpm[] = {
"16 16 221 2",
"  	c #43B92F",
". 	c #41B92D",
"+ 	c #45BA32",
"@ 	c #49B444",
"# 	c #48A75C",
"$ 	c #4DAD5D",
"% 	c #419871",
"& 	c #48997A",
"* 	c #4D9195",
"= 	c #4F87AE",
"- 	c #4C87A7",
"; 	c #44859C",
"> 	c #447CAB",
", 	c #4482A4",
"' 	c #457BB0",
") 	c #466FC9",
"! 	c #41B82D",
"~ 	c #40B82C",
"{ 	c #44B33E",
"] 	c #45AB50",
"^ 	c #44A855",
"/ 	c #419C66",
"( 	c #459B71",
"_ 	c #4B9488",
": 	c #498B95",
"< 	c #4780A4",
"[ 	c #448893",
"} 	c #4381A4",
"| 	c #44829F",
"1 	c #437EAA",
"2 	c #4476BA",
"3 	c #44BA30",
"4 	c #44AF48",
"5 	c #43AF44",
"6 	c #41A35C",
"7 	c #449A71",
"8 	c #498D8F",
"9 	c #458E8C",
"0 	c #46879A",
"a 	c #438D88",
"b 	c #438499",
"c 	c #78A3BB",
"d 	c #7AA6BC",
"e 	c #769ACD",
"f 	c #E2F4DF",
"g 	c #E5F5E3",
"h 	c #ECF8E9",
"i 	c #E3F3E1",
"j 	c #47AE4C",
"k 	c #44B338",
"l 	c #42A35B",
"m 	c #439773",
"n 	c #468F8C",
"o 	c #469189",
"p 	c #458895",
"q 	c #438C8A",
"r 	c #D6E4E9",
"s 	c #FAFCFC",
"t 	c #F4F9FA",
"u 	c #F5F8FB",
"v 	c #5AC249",
"w 	c #57C145",
"x 	c #5DC44B",
"y 	c #F6FBF5",
"z 	c #6FBE79",
"A 	c #43AF40",
"B 	c #41A456",
"C 	c #449577",
"D 	c #459086",
"E 	c #47918B",
"F 	c #448C8D",
"G 	c #78ADAB",
"H 	c #F6F9FB",
"I 	c #A7C4D2",
"J 	c #5F95AB",
"K 	c #4E7DBE",
"L 	c #42B82E",
"M 	c #44BA31",
"N 	c #EFF9EF",
"O 	c #ECF6EC",
"P 	c #42AF40",
"Q 	c #41A25D",
"R 	c #449679",
"S 	c #449180",
"T 	c #48918D",
"U 	c #448C8E",
"V 	c #F4F9F9",
"W 	c #DFEAED",
"X 	c #438697",
"Y 	c #44829C",
"Z 	c #43B82F",
"` 	c #85CE81",
" .	c #FAFDFA",
"..	c #84CC83",
"+.	c #42A162",
"@.	c #44957B",
"#.	c #439083",
"$.	c #489386",
"%.	c #559697",
"&.	c #EBF3F1",
"*.	c #73A6AF",
"=.	c #448697",
"-.	c #44829D",
";.	c #44B731",
">.	c #47BB34",
",.	c #47B342",
"'.	c #FBFDFB",
").	c #91CE92",
"!.	c #449283",
"~.	c #43947C",
"{.	c #489483",
"].	c #DAE7E9",
"^.	c #D6E6E5",
"/.	c #42839B",
"(.	c #448991",
"_.	c #4481A3",
":.	c #48BB35",
"<.	c #E7F3E8",
"[.	c #ECF7ED",
"}.	c #52A872",
"|.	c #479087",
"1.	c #439180",
"2.	c #7BB2A8",
"3.	c #F4F8F8",
"4.	c #DFECE9",
"5.	c #448A8F",
"6.	c #43B23E",
"7.	c #A1D4A8",
"8.	c #F8FCF8",
"9.	c #66B186",
"0.	c #459283",
"a.	c #479284",
"b.	c #C5DDDA",
"c.	c #D4E5E5",
"d.	c #69A59D",
"e.	c #428794",
"f.	c #438991",
"g.	c #44839D",
"h.	c #4476B9",
"i.	c #42B92E",
"j.	c #46BB32",
"k.	c #41B23C",
"l.	c #42A84F",
"m.	c #E1F2E1",
"n.	c #F0F7F3",
"o.	c #F5F9F8",
"p.	c #EBF4F1",
"q.	c #FBFCFC",
"r.	c #DEEBEB",
"s.	c #5D9E95",
"t.	c #428499",
"u.	c #438C8B",
"v.	c #4583A0",
"w.	c #3D6AA7",
"x.	c #040B03",
"y.	c #112E0C",
"z.	c #102C0F",
"A.	c #102A13",
"B.	c #0F270F",
"C.	c #1A3124",
"D.	c #DEECE9",
"E.	c #D3E5E2",
"F.	c #0B1313",
"G.	c #081111",
"H.	c #081013",
"I.	c #0A1416",
"J.	c #0C181B",
"K.	c #142337",
"L.	c #49BC36",
"M.	c #41A752",
"N.	c #41A84C",
"O.	c #429F62",
"P.	c #459184",
"Q.	c #459083",
"R.	c #46908A",
"S.	c #438A8F",
"T.	c #428A8E",
"U.	c #4380A6",
"V.	c #3D798E",
"W.	c #376C7D",
"X.	c #47BB33",
"Y.	c #071307",
"Z.	c #060F07",
"`.	c #41A74F",
" +	c #040906",
".+	c #071010",
"++	c #469974",
"@+	c #040A0A",
"#+	c #438D87",
"$+	c #081112",
"%+	c #04070A",
"&+	c #2E5768",
"*+	c #081113",
"=+	c #4477B9",
"-+	c #050D04",
";+	c #45A262",
">+	c #08150A",
",+	c #429C66",
"'+	c #050C09",
")+	c #46957E",
"!+	c #070D0D",
"~+	c #438B8D",
"{+	c #0E1B22",
"]+	c #437CAC",
"^+	c #091112",
"/+	c #050C0C",
"(+	c #447CAC",
"_+	c #4ABC37",
":+	c #040A04",
"<+	c #48A26A",
"[+	c #2B7130",
"}+	c #43996F",
"|+	c #040A06",
"1+	c #469876",
"2+	c #0B1615",
"3+	c #438893",
"4+	c #050C0E",
"5+	c #4381A3",
"6+	c #48908B",
"7+	c #081014",
"8+	c #467FAA",
"  . + @ # $ % & * = - ; > , ' ) ",
"! ~   { ] ^ / ( _ : < [ } | 1 2 ",
"! ~ 3 { 4 5 6 7 8 9 0 a b c d e ",
"f g h i j k l m n o p q r s t u ",
"v w x y z A B C D E F G H I J K ",
"L ! M N O P Q R S T U V W X Y 2 ",
"Z ! M `  ...+.@.#.$.%.&.*.=.-.2 ",
";.~ >.,.'.).+.!.~.{.].^./.(._.2 ",
";.~ :.,.<.[.}.|.1.2.3.4./.5._.2 ",
">.. :.6.7.8.9.0.a.b.c.d.e.f.g.h.",
"+ i.j.k.l.m.n.o.p.q.r.s.t.u.v.w.",
"x.y.y.z.A.B.C.D.E.F.G.G.H.I.J.K.",
"i.L.. { M.N.O.P.Q.R.S.T.U.V.W.2 ",
"+ X.. Y.Z.`. +.+++@+#+$+%+&+*+=+",
"+ . i.-+;+>+,+'+)+!+~+{+]+^+/+(+",
"_+. >.:+<+[+}+|+1+2+3+4+5+6+7+8+"};
