/* XPM */
static char * undo_xpm[] = {
"16 15 11 1",
" 	c None",
".	c #95B2E2",
"+	c #92B0E2",
"@	c #8FAEE1",
"#	c #89AAE0",
"$	c #81A4DE",
"%	c #9AB6E4",
"&	c #4076D0",
"*	c #8BABE0",
"=	c #7BA0DC",
"-	c #98B5E3",
".+@#$%%%%%%%%%%%",
"%%%%%%%%%%%%%%%%",
"%%&%%%&%&%&&%%%%",
"%%&%%%&%&&%%&%%%",
"%%&%%%&%&%%%&%%%",
"%%&%%&&%&%%%&%%%",
"%%%&&%&%&%%%&%%%",
"%%%%%%%%%%%%%%%%",
"%%%%%%&%%%%%%%%%",
"%%%&&&&%%&&&%%%%",
"%%&%%%&%&%%%&%%%",
"%%&%%%&%&%%%&%%%",
"%%&%%&&%&%%%&%%%",
"%%%&&%&%%&&&%%%%",
"*=%%%%%%%%%%%%%-"};
